<?xml version="1.0" standalone="no"?>
<!DOCTYPE svg PUBLIC "-//W3C//DTD SVG 20010904//EN"
 "http://www.w3.org/TR/2001/REC-SVG-20010904/DTD/svg10.dtd">
<svg version="1.0" xmlns="http://www.w3.org/2000/svg"
 width="500.000000pt" height="500.000000pt" viewBox="0 0 500.000000 500.000000"
 preserveAspectRatio="xMidYMid meet">

<g transform="translate(0.000000,500.000000) scale(0.100000,-0.100000)"
fill="#000000" stroke="none">
<path d="M1680 2805 l0 -515 104 0 105 0 3 194 3 195 30 31 c59 62 132 61 179
-3 19 -26 21 -44 24 -223 l3 -194 105 0 105 0 -3 239 -3 239 -30 44 c-54 77
-177 123 -279 104 -19 -4 -58 -22 -86 -41 l-50 -34 0 240 0 239 -105 0 -105 0
0 -515z"/>
<path d="M950 2785 l0 -495 115 0 115 0 0 184 0 184 123 4 c96 3 132 8 168 24
66 31 114 78 146 142 25 50 28 68 27 147 0 101 -13 140 -64 199 -41 46 -108
81 -185 95 -32 6 -146 11 -252 11 l-193 0 0 -495z m399 291 c42 -22 61 -54 61
-104 0 -90 -54 -132 -170 -132 l-60 0 0 131 0 132 69 -6 c38 -3 83 -13 100
-21z"/>
<path d="M2724 2906 c-18 -8 -50 -31 -73 -51 l-41 -37 0 41 0 41 -105 0 -105
0 0 -305 0 -305 104 0 104 0 4 178 c3 157 5 181 23 212 36 61 107 74 197 36
14 -6 25 8 58 74 23 45 39 88 36 95 -12 32 -145 45 -202 21z"/>
<path d="M3083 2904 c-57 -21 -123 -82 -158 -145 -37 -69 -47 -198 -21 -277
62 -184 268 -265 430 -167 l56 34 0 -30 0 -29 105 0 105 0 0 305 0 305 -105 0
c-105 0 -105 0 -105 -25 l0 -24 -51 31 c-44 28 -60 32 -132 35 -56 2 -95 -2
-124 -13z m244 -184 c46 -28 67 -65 67 -119 -1 -91 -52 -145 -140 -145 -55 0
-93 18 -119 58 -20 29 -30 87 -21 120 8 31 53 85 80 96 37 15 100 11 133 -10z"/>
<path d="M2207 2189 c-104 -15 -169 -66 -187 -145 -22 -95 25 -161 156 -220
86 -39 107 -62 83 -91 -20 -24 -108 -13 -158 20 -22 15 -43 27 -45 27 -2 0
-22 -31 -44 -69 -44 -77 -45 -75 25 -110 133 -67 348 -41 416 50 26 36 39 113
27 159 -20 73 -57 104 -184 150 -76 28 -98 49 -77 74 17 20 82 20 136 1 22 -8
43 -15 47 -15 12 0 69 120 63 130 -8 13 -97 37 -155 43 -25 2 -71 0 -103 -4z"/>
<path d="M2765 2189 c-189 -25 -315 -218 -261 -401 21 -73 95 -156 174 -195
50 -24 67 -27 147 -27 129 2 219 40 280 120 l26 34 -75 37 -74 36 -32 -26
c-39 -33 -67 -41 -131 -35 -57 6 -102 42 -113 91 l-6 27 220 0 220 0 0 35 c0
204 -160 333 -375 304z m136 -158 c16 -16 29 -39 29 -50 0 -20 -5 -21 -110
-21 -117 0 -122 2 -96 49 18 33 53 50 104 51 35 0 49 -6 73 -29z"/>
<path d="M3373 2190 c-69 -10 -138 -44 -165 -83 -14 -20 -23 -50 -26 -87 -7
-97 28 -139 171 -204 56 -25 77 -40 77 -53 0 -52 -77 -58 -159 -13 -30 17 -55
29 -56 28 -25 -37 -75 -128 -75 -136 0 -15 97 -60 159 -73 57 -12 148 -6 215
14 56 16 111 72 126 126 31 116 -25 198 -169 246 -86 28 -113 53 -90 81 15 19
84 18 143 -2 26 -9 49 -15 50 -13 2 2 18 32 35 67 l31 62 -24 9 c-76 30 -169
41 -243 31z"/>
<path d="M1450 1966 l0 -75 48 -3 c45 -3 47 -4 45 -32 -3 -34 -35 -72 -69 -80
-17 -5 -24 -13 -24 -31 0 -41 51 -34 103 14 l42 40 3 120 4 121 -76 0 -76 0 0
-74z"/>
<path d="M1660 1965 l0 -75 45 0 c44 0 45 -1 45 -33 0 -36 -28 -69 -67 -82
-16 -4 -23 -14 -23 -32 0 -24 2 -25 36 -20 20 4 48 17 61 29 45 42 53 70 53
183 l0 105 -75 0 -75 0 0 -75z"/>
<path d="M1110 1745 c0 -20 5 -25 25 -25 20 0 25 5 25 25 0 20 -5 25 -25 25
-20 0 -25 -5 -25 -25z"/>
<path d="M1220 1745 c0 -21 5 -25 30 -25 25 0 30 4 30 25 0 21 -5 25 -30 25
-25 0 -30 -4 -30 -25z"/>
<path d="M1340 1745 c0 -20 5 -25 25 -25 20 0 25 5 25 25 0 20 -5 25 -25 25
-20 0 -25 -5 -25 -25z"/>
</g>
</svg>
